<svg width="24" height="24" viewBox="0 0 24 24" fill="none" xmlns="http://www.w3.org/2000/svg">
<g id="calendar=default">
<g id="&#234;&#183;&#184;&#235;&#163;&#185; 4066">
<path id="&#236;&#130;&#172;&#234;&#176;&#129;&#237;&#152;&#149; 1339" d="M3.99899 8H19.999V18.5C19.999 18.8978 19.841 19.2794 19.5597 19.5607C19.2783 19.842 18.8968 20 18.499 20H5.49899C5.10117 20 4.71964 19.842 4.43833 19.5607C4.15703 19.2794 3.99899 18.8978 3.99899 18.5V8Z" stroke="#222222" stroke-width="2"/>
<g id="&#234;&#183;&#184;&#235;&#163;&#185; 2102">
<g id="&#237;&#140;&#168;&#236;&#138;&#164; 975">
<path id="Vector" fill-rule="evenodd" clip-rule="evenodd" d="M16.5 10.5C17.0518 10.5 17.5 10.948 17.5 11.5C17.5 12.053 17.0518 12.5 16.5 12.5C15.9473 12.5 15.5 12.053 15.5 11.5C15.5 10.948 15.9473 10.5 16.5 10.5Z" fill="#222222"/>
</g>
<g id="&#237;&#140;&#168;&#236;&#138;&#164; 979">
<path id="Vector_2" fill-rule="evenodd" clip-rule="evenodd" d="M16.5 13C17.0518 13 17.5 13.448 17.5 14C17.5 14.552 17.0518 15 16.5 15C15.9473 15 15.5 14.552 15.5 14C15.5 13.448 15.9473 13 16.5 13Z" fill="#222222"/>
</g>
<g id="&#237;&#140;&#168;&#236;&#138;&#164; 983">
<path id="Vector_3" fill-rule="evenodd" clip-rule="evenodd" d="M16.5 15.5C17.0518 15.5 17.5 15.948 17.5 16.5C17.5 17.052 17.0518 17.5 16.5 17.5C15.9473 17.5 15.5 17.052 15.5 16.5C15.5 15.948 15.9473 15.5 16.5 15.5Z" fill="#222222"/>
</g>
<g id="&#237;&#140;&#168;&#236;&#138;&#164; 974">
<path id="Vector_4" fill-rule="evenodd" clip-rule="evenodd" d="M13.5 10.5C14.0518 10.5 14.5 10.948 14.5 11.5C14.5 12.053 14.0518 12.5 13.5 12.5C12.9482 12.5 12.5 12.053 12.5 11.5C12.5 10.948 12.9482 10.5 13.5 10.5Z" fill="#222222"/>
</g>
<g id="&#237;&#140;&#168;&#236;&#138;&#164; 978">
<path id="Vector_5" fill-rule="evenodd" clip-rule="evenodd" d="M13.5 13C14.0518 13 14.5 13.448 14.5 14C14.5 14.552 14.0518 15 13.5 15C12.9482 15 12.5 14.552 12.5 14C12.5 13.448 12.9482 13 13.5 13Z" fill="#222222"/>
</g>
<g id="&#237;&#140;&#168;&#236;&#138;&#164; 982">
<path id="Vector_6" fill-rule="evenodd" clip-rule="evenodd" d="M13.5 15.5C14.0518 15.5 14.5 15.948 14.5 16.5C14.5 17.052 14.0518 17.5 13.5 17.5C12.9482 17.5 12.5 17.052 12.5 16.5C12.5 15.948 12.9482 15.5 13.5 15.5Z" fill="#222222"/>
</g>
<g id="&#237;&#140;&#168;&#236;&#138;&#164; 973">
<path id="Vector_7" fill-rule="evenodd" clip-rule="evenodd" d="M10.5 10.5C11.0527 10.5 11.5 10.948 11.5 11.5C11.5 12.053 11.0527 12.5 10.5 12.5C9.94821 12.5 9.5 12.053 9.5 11.5C9.5 10.948 9.94821 10.5 10.5 10.5Z" fill="#222222"/>
</g>
<g id="&#237;&#140;&#168;&#236;&#138;&#164; 977">
<path id="Vector_8" fill-rule="evenodd" clip-rule="evenodd" d="M10.5 13C11.0527 13 11.5 13.448 11.5 14C11.5 14.552 11.0527 15 10.5 15C9.94821 15 9.5 14.552 9.5 14C9.5 13.448 9.94821 13 10.5 13Z" fill="#222222"/>
</g>
<g id="&#237;&#140;&#168;&#236;&#138;&#164; 981">
<path id="Vector_9" fill-rule="evenodd" clip-rule="evenodd" d="M10.5 15.5C11.0527 15.5 11.5 15.948 11.5 16.5C11.5 17.052 11.0527 17.5 10.5 17.5C9.94821 17.5 9.5 17.052 9.5 16.5C9.5 15.948 9.94821 15.5 10.5 15.5Z" fill="#222222"/>
</g>
<g id="&#237;&#140;&#168;&#236;&#138;&#164; 972">
<path id="Vector_10" fill-rule="evenodd" clip-rule="evenodd" d="M7.4996 10.5C8.05249 10.5 8.5 10.948 8.5 11.5C8.5 12.053 8.05249 12.5 7.4996 12.5C6.94751 12.5 6.5 12.053 6.5 11.5C6.5 10.948 6.94751 10.5 7.4996 10.5Z" fill="#222222"/>
</g>
<g id="&#237;&#140;&#168;&#236;&#138;&#164; 976">
<path id="Vector_11" fill-rule="evenodd" clip-rule="evenodd" d="M7.4996 13C8.05249 13 8.5 13.448 8.5 14C8.5 14.552 8.05249 15 7.4996 15C6.94751 15 6.5 14.552 6.5 14C6.5 13.448 6.94751 13 7.4996 13Z" fill="#222222"/>
</g>
<g id="&#237;&#140;&#168;&#236;&#138;&#164; 980">
<path id="Vector_12" fill-rule="evenodd" clip-rule="evenodd" d="M7.4996 15.5C8.05249 15.5 8.5 15.948 8.5 16.5C8.5 17.052 8.05249 17.5 7.4996 17.5C6.94751 17.5 6.5 17.052 6.5 16.5C6.5 15.948 6.94751 15.5 7.4996 15.5Z" fill="#222222"/>
</g>
</g>
<path id="&#236;&#130;&#172;&#234;&#176;&#129;&#237;&#152;&#149; 1340" d="M5.49899 3.99902H18.499C18.8968 3.99902 19.2783 4.15706 19.5597 4.43836C19.841 4.71967 19.999 5.1012 19.999 5.49902V7.99902H3.99899V5.49902C3.99899 5.1012 4.15703 4.71967 4.43833 4.43836C4.71964 4.15706 5.10117 3.99902 5.49899 3.99902Z" stroke="#222222" stroke-width="2"/>
<path id="&#237;&#140;&#168;&#236;&#138;&#164; 1020" d="M11.999 2.99902V4.99902" stroke="#222222" stroke-width="2" stroke-linecap="round"/>
<path id="&#237;&#140;&#168;&#236;&#138;&#164; 1021" d="M15.999 2.99902V4.99902" stroke="#222222" stroke-width="2" stroke-linecap="round"/>
<path id="&#237;&#140;&#168;&#236;&#138;&#164; 1022" d="M7.99899 2.99902V4.99902" stroke="#222222" stroke-width="2" stroke-linecap="round"/>
</g>
</g>
</svg>
